<svg width="12" height="12" viewBox="0 0 12 12" fill="none" xmlns="http://www.w3.org/2000/svg">
<path d="M8.95919 7.16C8.82969 7.2855 8.77019 7.467 8.79969 7.645L9.24419 10.105C9.28169 10.3135 9.19369 10.5245 9.01919 10.645C8.84819 10.77 8.62069 10.785 8.43419 10.685L6.21969 9.53C6.14269 9.489 6.05719 9.467 5.96969 9.4645H5.83419C5.78719 9.4715 5.74119 9.4865 5.69919 9.5095L3.48419 10.67C3.37469 10.725 3.25069 10.7445 3.12919 10.725C2.83319 10.669 2.63569 10.387 2.68419 10.0895L3.12919 7.6295C3.15869 7.45 3.09919 7.2675 2.96969 7.14L1.16419 5.39C1.01319 5.2435 0.960694 5.0235 1.02969 4.825C1.09669 4.627 1.26769 4.4825 1.47419 4.45L3.95919 4.0895C4.14819 4.07 4.31419 3.955 4.39919 3.785L5.49419 1.54C5.52019 1.49 5.55369 1.444 5.59419 1.405L5.63919 1.37C5.66269 1.344 5.68969 1.3225 5.71969 1.305L5.77419 1.285L5.85919 1.25H6.06969C6.25769 1.2695 6.42319 1.382 6.50969 1.55L7.61919 3.785C7.69919 3.9485 7.85469 4.062 8.03419 4.0895L10.5192 4.45C10.7292 4.48 10.9047 4.625 10.9742 4.825C11.0397 5.0255 10.9832 5.2455 10.8292 5.39L8.95919 7.16Z" fill="#FECC63"/>
</svg>
